<svg width="512" height="512" viewBox="0 0 512 512" fill="none" xmlns="http://www.w3.org/2000/svg" role="img" aria-labelledby="title description">
  <title id="title">Pawar Borewell's and Trader's logo</title>
  <desc id="description">A premium emblem representing a borewell, water and dependable service.</desc>
  <defs>
    <linearGradient id="water" x1="256" y1="92" x2="256" y2="404" gradientUnits="userSpaceOnUse">
      <stop stop-color="#75D7D3"/>
      <stop offset="1" stop-color="#23908F"/>
    </linearGradient>
    <filter id="shadow" x="26" y="32" width="460" height="460" filterUnits="userSpaceOnUse" color-interpolation-filters="sRGB">
      <feDropShadow dx="0" dy="14" stdDeviation="12" flood-color="#123448" flood-opacity=".22"/>
    </filter>
  </defs>
  <g filter="url(#shadow)">
    <circle cx="256" cy="244" r="199" fill="#123448"/>
    <circle cx="256" cy="244" r="190" stroke="#EB7542" stroke-width="18"/>
    <circle cx="256" cy="244" r="160" stroke="#F7F5EF" stroke-opacity=".24" stroke-width="2"/>
  </g>
  <path d="M180 199L256 92L332 199" stroke="#EB7542" stroke-width="18" stroke-linecap="round" stroke-linejoin="round"/>
  <path d="M214 199L256 137L298 199" stroke="#F7F5EF" stroke-width="8" stroke-linecap="round" stroke-linejoin="round"/>
  <path d="M159 211H353" stroke="#F7F5EF" stroke-width="10" stroke-linecap="round"/>
  <path d="M190 211V235M322 211V235" stroke="#EB7542" stroke-width="13" stroke-linecap="round"/>
  <path d="M256 165C220 215 183 258 183 318C183 367 216 400 256 400C296 400 329 367 329 318C329 258 292 215 256 165Z" fill="url(#water)"/>
  <path d="M204 317C231 334 281 334 308 317" stroke="#F7F5EF" stroke-width="9" stroke-linecap="round"/>
  <path d="M215 349C238 361 274 361 297 349" stroke="#123448" stroke-width="9" stroke-linecap="round" opacity=".7"/>
  <path d="M218 277C236 258 276 258 294 277" stroke="#123448" stroke-width="9" stroke-linecap="round" opacity=".7"/>
  <path d="M256 218V297" stroke="#F7F5EF" stroke-width="11" stroke-linecap="round"/>
  <path d="M230 245H275C293 245 304 257 304 273C304 290 293 301 275 301H252" stroke="#F7F5EF" stroke-width="11" stroke-linecap="round" stroke-linejoin="round"/>
  <circle cx="256" cy="455" r="23" fill="#EB7542"/>
  <path d="M245 455H267" stroke="#F7F5EF" stroke-width="8" stroke-linecap="round"/>
</svg>
